<?xml version="1.0" encoding="iso-8859-1"?>
<!-- Generator: Adobe Illustrator 27.0.0, SVG Export Plug-In . SVG Version: 6.00 Build 0)  -->
<svg version="1.1" id="Capa_1" xmlns="http://www.w3.org/2000/svg" xmlns:xlink="http://www.w3.org/1999/xlink" x="0px" y="0px"
	 viewBox="0 0 512 512" style="enable-background:new 0 0 512 512;" xml:space="preserve">
<g>
	<g>
		<path style="fill:#FD6050;" d="M30.082,219.743h411.673c33.272,0,60.245,26.973,60.245,60.245v44.18H40.122l-4.854-5.042
			C19.057,302.288,10,279.823,10,256.449v-16.624C10,228.734,18.991,219.743,30.082,219.743z"/>
		<path style="fill:#DB4B86;" d="M179,241.956c0-7.466,0.271-14.868,0.755-22.212h-44.367v-44.18h-4.204
			c-25.461,0-49.74,10.74-66.866,29.58l-13.273,14.6H30.082c-11.091,0-20.082,8.991-20.082,20.082v16.624
			c0,23.374,9.057,45.839,25.268,62.677l4.854,5.042h149.115C182.559,297.871,179,270.33,179,241.956z"/>
		<polygon style="fill:#D2DCFD;" points="370.639,218.579 299.729,157.71 231.451,157.71 302.361,218.579 		"/>
		<circle style="fill:#D2DCFD;" cx="113.298" cy="314.127" r="40.163"/>
		<circle style="fill:#D2DCFD;" cx="388.661" cy="314.127" r="40.163"/>
	</g>
	<g>
		<path style="fill:#FFFFFF;" d="M499.188,281.956h-35.913c-5.522,0-10-4.477-10-10s4.478-10,10-10h35.913c5.522,0,10,4.477,10,10
			S504.711,281.956,499.188,281.956z"/>
		<rect x="134.457" y="269.988" style="fill:#67CCD1;" width="233.05" height="20"/>
		<path style="fill:#052A75;" d="M441.755,209.744h-66.056l-69.457-59.622c-1.813-1.556-4.124-2.412-6.514-2.412h-68.277
			c-4.184,0-7.925,2.604-9.377,6.527c-1.453,3.923-0.311,8.335,2.864,11.061l51.777,44.446H145.388v-34.18c0-5.523-4.477-10-10-10
			h-4.204c-28.217,0-55.286,11.975-74.266,32.853l-10.297,11.327h-16.54C13.495,209.744,0,223.238,0,239.825v16.625
			c0,26.093,9.967,50.815,28.065,69.613l4.854,5.041c1.885,1.958,4.486,3.064,7.204,3.064h27.203
			c7.751,17.711,25.436,30.123,45.973,30.123s38.222-12.411,45.973-30.123h183.417c7.751,17.711,25.436,30.123,45.973,30.123
			s38.222-12.411,45.973-30.123H502c5.522,0,10-4.477,10-10v-44.18C512,241.255,480.488,209.744,441.755,209.744z M258.453,167.709
			h37.572l48.967,42.034h-37.571L258.453,167.709z M125.388,185.774v23.969H73.747C87.46,195.732,105.889,187.192,125.388,185.774z
			 M113.298,344.291c-16.632,0-30.163-13.531-30.163-30.164c0-16.632,13.531-30.163,30.163-30.163s30.163,13.531,30.163,30.163
			C143.461,330.759,129.93,344.291,113.298,344.291z M388.661,344.291c-16.632,0-30.163-13.531-30.163-30.164
			c0-16.632,13.531-30.163,30.163-30.163s30.163,13.531,30.163,30.163C418.824,330.759,405.293,344.291,388.661,344.291z
			 M492,314.168h-53.177c0-0.014,0.001-0.027,0.001-0.041c0-27.66-22.503-50.163-50.163-50.163s-50.163,22.503-50.163,50.163
			c0,0.014,0.001,0.027,0.001,0.041H163.46c0-0.014,0.001-0.027,0.001-0.041c0-27.66-22.503-50.163-50.163-50.163
			s-50.163,22.503-50.163,50.163c0,0.014,0.001,0.027,0.001,0.041h-18.76l-1.904-1.977C27.981,297.139,20,277.343,20,256.45v-16.625
			c0-5.559,4.522-10.082,10.082-10.082h411.673c27.705,0,50.245,22.54,50.245,50.245V314.168z"/>
	</g>
</g>
<g>
</g>
<g>
</g>
<g>
</g>
<g>
</g>
<g>
</g>
<g>
</g>
<g>
</g>
<g>
</g>
<g>
</g>
<g>
</g>
<g>
</g>
<g>
</g>
<g>
</g>
<g>
</g>
<g>
</g>
</svg>
