<?xml version="1.0" encoding="iso-8859-1"?>
<!-- Generator: Adobe Illustrator 27.0.0, SVG Export Plug-In . SVG Version: 6.00 Build 0)  -->
<svg version="1.1" id="Capa_1" xmlns="http://www.w3.org/2000/svg" xmlns:xlink="http://www.w3.org/1999/xlink" x="0px" y="0px"
	 viewBox="0 0 512 512" style="enable-background:new 0 0 512 512;" xml:space="preserve">
<g>
	<g>
		<path style="fill-rule:evenodd;clip-rule:evenodd;fill:#67CCD1;" d="M90.327,10h331.347C465.854,10,502,46.147,502,90.326v331.347
			c0,44.18-36.147,80.326-80.326,80.326H90.327C46.147,502,10,465.853,10,421.674V90.326C10,46.147,46.147,10,90.327,10z"/>
		<path style="fill-rule:evenodd;clip-rule:evenodd;fill:#27A2CC;" d="M90.327,10h151.077
			c-48.228,58.347-77.208,116.57-77.208,214.799S221.596,441.07,309.258,502H90.327C46.149,502,10,465.853,10,421.674V90.326
			C10,46.147,46.147,10,90.327,10z"/>
		<polygon style="fill-rule:evenodd;clip-rule:evenodd;fill:#FFFFFF;" points="253.824,256 95.347,347.497 95.347,164.504 		"/>
		<path style="fill-rule:evenodd;clip-rule:evenodd;fill:#D2DCFD;" d="M174.72,301.671l-79.373,45.826V164.504l69.288,40.003
			c-0.287,6.575-0.439,13.329-0.439,20.291C164.196,249.574,167.852,275.609,174.72,301.671z"/>
		<polygon style="fill-rule:evenodd;clip-rule:evenodd;fill:#FFFFFF;" points="415.586,256 257.109,347.497 257.109,164.504 		"/>
	</g>
	<g>
		<path style="fill:#052A75;" d="M421.674,0H90.327C40.521,0,0,40.521,0,90.327v331.347C0,471.479,40.521,512,90.327,512h331.347
			C471.479,512,512,471.479,512,421.673V90.327C512,40.521,471.479,0,421.674,0z M492,421.673C492,460.452,460.452,492,421.674,492
			H90.327C51.549,492,20,460.452,20,421.673V90.327C20,51.548,51.549,20,90.327,20h331.347C460.452,20,492,51.548,492,90.327
			V421.673z"/>
		<path style="fill:#052A75;" d="M416.653,154.503c-5.522,0-10,4.477-10,10v74.793l-144.545-83.453c-3.094-1.786-6.906-1.786-10,0
			s-5,5.087-5,8.66v76.072l-146.762-84.732c-3.094-1.786-6.906-1.786-10,0s-5,5.087-5,8.66v182.993c0,3.573,1.906,6.874,5,8.66
			c1.547,0.894,3.273,1.34,5,1.34s3.453-0.447,5-1.34l146.762-84.732v76.072c0,3.573,1.906,6.874,5,8.66
			c1.547,0.894,3.273,1.34,5,1.34s3.453-0.447,5-1.34l144.545-83.453v74.792c0,5.523,4.478,10,10,10s10-4.477,10-10V164.503
			C426.653,158.98,422.176,154.503,416.653,154.503z M105.347,330.177V181.824L233.824,256L105.347,330.177z M267.108,330.177
			V181.824L395.586,256L267.108,330.177z"/>
	</g>
</g>
<g>
</g>
<g>
</g>
<g>
</g>
<g>
</g>
<g>
</g>
<g>
</g>
<g>
</g>
<g>
</g>
<g>
</g>
<g>
</g>
<g>
</g>
<g>
</g>
<g>
</g>
<g>
</g>
<g>
</g>
</svg>
