<?xml version="1.0" encoding="iso-8859-1"?>
<!-- Generator: Adobe Illustrator 27.2.0, SVG Export Plug-In . SVG Version: 6.00 Build 0)  -->
<svg version="1.1" id="Capa_1" xmlns="http://www.w3.org/2000/svg" xmlns:xlink="http://www.w3.org/1999/xlink" x="0px" y="0px"
	 viewBox="0 0 509.998 509.998" style="enable-background:new 0 0 509.998 509.998;" xml:space="preserve">
<g>
	<g>
		<g>
			<path style="fill:#FD6050;" d="M499.899,165.329C494.998,51.358,350.585,3.79,277.702,89.509
				c-72.71-85.586-217.039-38.32-222.184,75.515c-1.605,34.981,14.149,68.681,41.09,91.34l181.095,154.143L458.75,256.581
				C485.686,233.953,501.418,200.287,499.899,165.329z"/>
		</g>
		<g>
			<path style="fill:#D63B78;" d="M112.643,66.081c-31.893,20.205-55.117,54.5-57.125,98.942
				c-1.605,34.981,14.149,68.681,41.09,91.34l181.095,154.143l63.748-54.198C224.656,302.946,137.729,195.548,112.643,66.081z"/>
		</g>
		<g>
			<g>
				<g>
					<g>
						<polygon style="fill:#FDCB50;" points="221.749,250.824 158.253,464.402 115.93,358.211 10,317.735 						"/>
					</g>
				</g>
			</g>
			<g>
				<g>
					<g>
						<polygon style="fill:#FD8F01;" points="114.96,357.613 158.253,464.402 221.749,250.824 						"/>
					</g>
				</g>
			</g>
		</g>
	</g>
	<path style="fill:#052A75;" d="M509.89,164.9c-2.426-56.413-37.513-102.991-91.57-121.558c-25.413-8.728-52.306-10.11-77.77-3.998
		c-23.81,5.715-45.334,17.876-62.846,35.415c-17.476-17.511-38.965-29.664-62.742-35.388c-25.439-6.125-52.314-4.77-77.718,3.918
		C83.218,61.767,48.074,108.24,45.529,164.565c-1.712,37.322,14.976,74.5,44.597,99.413l15.466,13.164L6.996,308.197
		c-4.059,1.278-6.864,4.985-6.991,9.239c-0.127,4.253,2.451,8.122,6.426,9.641l101.834,38.911l40.699,102.118
		c1.52,3.815,5.21,6.298,9.287,6.298c0.146,0,0.292-0.003,0.439-0.009c4.25-0.186,7.916-3.039,9.14-7.113l32.824-109.223
		l70.566,60.064c1.868,1.59,4.175,2.385,6.482,2.385c2.305,0,4.61-0.794,6.478-2.381l181.002-153.888
		C494.799,239.358,511.512,202.22,509.89,164.9z M156.928,434.067l-31.709-79.559c-1.035-2.597-3.109-4.642-5.72-5.639
		l-79.101-30.225l167.027-52.608l-21.472,71.448c-0.009,0.028-0.016,0.056-0.025,0.083L156.928,434.067z M452.272,248.962
		L277.706,397.378l-70.767-60.235l25.076-83.441c1.066-3.547,0.084-7.394-2.552-9.996c-2.637-2.602-6.496-3.534-10.028-2.42
		l-91.322,28.763l-25.069-21.338c-24.933-20.971-38.965-52.085-37.536-83.235c2.167-47.937,32.135-87.505,78.209-103.262
		c36.587-12.516,88.997-10.214,126.364,33.77c1.899,2.236,4.685,3.525,7.619,3.525c0.001,0,0.001,0,0.002,0
		c2.933,0,5.718-1.288,7.619-3.522c37.446-44.042,89.9-46.299,126.502-33.729c46.1,15.833,76.021,55.493,78.085,103.506
		C491.263,196.925,477.21,228.013,452.272,248.962z"/>
</g>
<g>
</g>
<g>
</g>
<g>
</g>
<g>
</g>
<g>
</g>
<g>
</g>
<g>
</g>
<g>
</g>
<g>
</g>
<g>
</g>
<g>
</g>
<g>
</g>
<g>
</g>
<g>
</g>
<g>
</g>
</svg>
