<?xml version="1.0" encoding="iso-8859-1"?>
<!-- Generator: Adobe Illustrator 28.0.0, SVG Export Plug-In . SVG Version: 6.00 Build 0)  -->
<svg version="1.1" id="Layer_1" xmlns="http://www.w3.org/2000/svg" xmlns:xlink="http://www.w3.org/1999/xlink" x="0px" y="0px"
	 viewBox="0 0 510 510" style="enable-background:new 0 0 510 510;" xml:space="preserve">
<g id="Right_Arrow">
	<g>
		<path style="fill:#91B706;" d="M510,255.002c0,2.67-1.07,5.24-2.97,7.12l-121.56,120c-1.94,1.92-4.48,2.88-7.02,2.88
			c-2.58,0-5.16-0.99-7.12-2.97c-3.88-3.93-3.84-10.27,0.09-14.15l104.22-102.88H10c-5.52,0-10-4.48-10-10s4.48-10,10-10h465.64
			l-104.22-102.88c-3.93-3.88-3.97-10.22-0.09-14.15c3.88-3.93,10.22-3.97,14.14-0.09l121.56,120
			C508.93,249.762,510,252.332,510,255.002z"/>
	</g>
</g>
<g>
</g>
<g>
</g>
<g>
</g>
<g>
</g>
<g>
</g>
<g>
</g>
<g>
</g>
<g>
</g>
<g>
</g>
<g>
</g>
<g>
</g>
<g>
</g>
<g>
</g>
<g>
</g>
<g>
</g>
</svg>
