<?xml version="1.0" encoding="iso-8859-1"?>
<!-- Generator: Adobe Illustrator 27.2.0, SVG Export Plug-In . SVG Version: 6.00 Build 0)  -->
<svg version="1.1" id="Capa_1" xmlns="http://www.w3.org/2000/svg" xmlns:xlink="http://www.w3.org/1999/xlink" x="0px" y="0px"
	 viewBox="0 0 510 510" style="enable-background:new 0 0 510 510;" xml:space="preserve">
<g>
	<g>
		<g>
			<g>
				<g>
					<polygon style="fill:#FDCB50;" points="255,21.991 335.163,169.265 500,199.994 384.706,321.743 406.418,488.009 255,415.98 
						103.582,488.009 125.294,321.743 10,199.994 174.838,169.265 					"/>
				</g>
			</g>
		</g>
		<g>
			<g>
				<g>
					<polygon style="fill:#FD8F01;" points="174.838,169.265 10,199.994 255,277.251 255,21.991 					"/>
				</g>
			</g>
		</g>
		<g>
			<g>
				<g>
					<polygon style="fill:#FD8F01;" points="384.706,321.743 499.19,200.85 255,277.251 272.793,400.694 406.418,488.009 					"/>
				</g>
			</g>
		</g>
		<g>
			<g>
				<g>
					<polygon style="fill:#FD6050;" points="255,277.251 255,277.251 104.665,479.717 103.582,488.009 255,415.98 404.041,486.878 
						255,277.251 					"/>
				</g>
			</g>
		</g>
	</g>
	<path style="fill:#052A75;" d="M509.511,196.904c-1.132-3.483-4.078-6.069-7.678-6.74l-160.161-29.857L263.783,17.21
		c-1.751-3.217-5.121-5.219-8.783-5.219c-3.663,0-7.032,2.002-8.783,5.219l-77.888,143.096L8.168,190.164
		c-3.601,0.671-6.546,3.257-7.678,6.74c-1.131,3.483-0.269,7.307,2.25,9.966l112.023,118.295L93.666,486.714
		c-0.474,3.632,1.075,7.232,4.038,9.385c2.964,2.153,6.865,2.514,10.174,0.94L255,427.054l147.123,69.985
		c1.366,0.65,2.833,0.97,4.295,0.97c2.076,0,4.14-0.646,5.879-1.91c2.963-2.153,4.512-5.753,4.038-9.385l-21.097-161.549
		L507.261,206.87C509.779,204.21,510.642,200.387,509.511,196.904z M377.445,314.867c-2.07,2.185-3.045,5.186-2.655,8.171
		l19.333,148.048L259.296,406.95c-1.359-0.646-2.828-0.97-4.296-0.97s-2.937,0.323-4.296,0.97l-134.828,64.137l19.334-148.048
		c0.39-2.984-0.586-5.985-2.655-8.171L29.894,206.458l146.776-27.362c2.959-0.551,5.512-2.406,6.951-5.05L255,42.908l71.379,131.138
		c1.439,2.644,3.992,4.498,6.951,5.05l146.776,27.362L377.445,314.867z"/>
</g>
<g>
</g>
<g>
</g>
<g>
</g>
<g>
</g>
<g>
</g>
<g>
</g>
<g>
</g>
<g>
</g>
<g>
</g>
<g>
</g>
<g>
</g>
<g>
</g>
<g>
</g>
<g>
</g>
<g>
</g>
</svg>
