<?xml version="1.0" encoding="iso-8859-1"?>
<!-- Generator: Adobe Illustrator 27.2.0, SVG Export Plug-In . SVG Version: 6.00 Build 0)  -->
<svg version="1.1" id="Capa_1" xmlns="http://www.w3.org/2000/svg" xmlns:xlink="http://www.w3.org/1999/xlink" x="0px" y="0px"
	 viewBox="0 0 510.233 510.233" style="enable-background:new 0 0 510.233 510.233;" xml:space="preserve">
<g id="XMLID_212_">
	<g>
		<g id="XMLID_00000158709890806085789510000007908220304902981308_">
			<path style="fill:#D2DCFD;" d="M40.313,340.851l-25.222-43.687l58.111-33.551c-3.372-19.773-3.038-41.41,0.916-60.988
				l-59.027-34.079l54.257-93.976l59.093,34.117c16.474-14.446,35.777-25.743,56.979-32.935V11.19h108.514v64.563
				c8.572,2.908,16.834,6.487,24.725,10.673l4.825,47.649l-38.36,38.362c-72.477-50.02-158.646,36.213-108.657,108.636
				l-42.456,42.475L40.313,340.851z"/>
		</g>
		<g>
			<g>
				<path style="fill:#93B2F4;" d="M293.934,75.753V11.19h-6.684c-22.166,29.882-32.434,66.824-29.221,103.488l-49.723,49.723
					c23.997-11.199,56.072-7.652,76.819,8.035l38.36-38.362l-4.825-47.649C310.768,82.24,302.506,78.661,293.934,75.753z"/>
			</g>
			<g>
				<path style="fill:#93B2F4;" d="M114.62,258.086c-13.934-1.234-28.344-0.494-41.952,2.112c0.167,1.142,0.345,2.281,0.534,3.415
					l-58.111,33.551l25.222,43.687l93.698-17.303l42.456-42.475c-15.68-20.743-19.224-52.817-8.027-76.806L114.62,258.086z"/>
			</g>
		</g>
		<g>
			<path style="fill:#D2DCFD;" d="M491.361,62.535l-62.653,62.653l-43.833-43.833l62.653-62.653
				c-73.885-34.839-153.427,39.235-124.044,115.374l-94.435,94.435l52.504,52.504l94.435-94.435
				C452.179,215.971,526.188,136.367,491.361,62.535z"/>
		</g>
		<g>
			<polygon style="fill:#FDCB50;" points="323.123,239.443 242.853,322.173 283.603,362.922 365.103,281.423 			"/>
		</g>
		<g id="XMLID_00000042715231637575518520000000212760607971581849_">
			<path style="fill:#6864F7;" d="M165.826,473.328c26.3-26.3,33.188-64.652,20.688-97.277l95.038-95.038l-52.504-52.504
				l-95.038,95.038C57.82,294.156-16.19,373.76,18.637,447.592l62.653-62.653l43.834,43.833l-62.653,62.653
				C96.299,507.316,137.874,501.281,165.826,473.328z"/>
		</g>
		<g id="XMLID_00000103262957806514149590000009364424775144227223_">
			<polygon style="fill:#D2DCFD;" points="495.471,456.806 458.986,493.291 414.93,453.555 455.735,412.75 			"/>
		</g>
	</g>
	<path style="fill:#052A75;" d="M463.161,406.053c-3.643-4.21-10.637-4.393-14.497-0.373c0,0-13.331,13.331-13.331,13.331
		l-96.838-96.838l33.679-33.678c1.875-1.875,2.929-4.419,2.929-7.071c0-2.652-1.054-5.196-2.929-7.071l-34.908-34.908l41.369-41.369
		c83.222,26.233,159.156-60.81,121.776-139.791c-1.384-2.948-4.118-5.037-7.327-5.598c-3.211-0.559-6.49,0.477-8.794,2.779
		l-55.582,55.582l-29.69-29.691l55.581-55.582c2.304-2.303,3.341-5.584,2.779-8.794s-2.65-5.943-5.599-7.329
		c-53.835-26.731-123.973,4.652-139.97,62.368c-2.603-1.149-5.225-2.254-7.876-3.276V11.19c0-5.523-4.478-10-10-10H185.42
		c-5.523,0-10,4.477-10,10v57.548c-17.39,6.689-33.502,16.004-48.054,27.782L74.348,65.911c-4.784-2.761-10.9-1.122-13.66,3.66
		L6.431,163.547c-2.762,4.783-1.123,10.899,3.66,13.66l52.958,30.576c-2.618,16.718-2.867,33.763-0.726,50.565l-52.232,30.156
		c-2.297,1.326-3.973,3.51-4.659,6.072c-0.687,2.562-0.327,5.292,0.999,7.588l21.343,36.966
		C-0.75,369.239-8.112,414.168,9.586,451.843c1.385,2.949,4.119,5.038,7.328,5.599c3.214,0.56,6.49-0.476,8.794-2.779l55.582-55.582
		l29.69,29.691l-55.581,55.582c-2.304,2.303-3.341,5.585-2.779,8.794c0.561,3.209,2.65,5.943,5.599,7.329
		c79.144,37.201,165.85-38.151,139.79-121.777l43.614-43.614l34.908,34.908c1.953,1.953,4.512,2.929,7.071,2.929
		s5.118-0.976,7.071-2.929l33.679-33.679l96.838,96.838l-13.331,13.331c-1.939,1.939-2.996,4.588-2.926,7.329
		c0.071,2.741,1.264,5.332,3.3,7.169l44.056,39.736c3.947,3.561,10,3.414,13.769-0.355c0,0,36.484-36.485,36.484-36.485
		c3.764-3.764,3.919-9.816,0.355-13.769C502.897,450.108,463.161,406.053,463.161,406.053z M78.202,272.274
		c3.611-2.085,5.55-6.192,4.863-10.306c-3.175-18.982-2.882-38.544,0.861-57.397c0.832-4.2-1.102-8.464-4.81-10.604l-50.366-29.079
		l44.257-76.656l50.434,29.117c3.712,2.143,8.374,1.683,11.593-1.142c15.799-13.854,33.832-24.278,53.599-30.984
		c4.058-1.376,6.787-5.185,6.787-9.47V21.19h88.514v54.563c0,4.285,2.73,8.093,6.787,9.47c5.831,1.978,11.578,4.319,17.159,6.977
		c-1.191,13.035,0.116,26.361,4.109,39.227l-28.232,28.232c-78.007-44.396-164.442,42.102-120.059,120.059l-32.335,32.335
		c-30.085-9.334-62.695-4.059-88.178,13.772l-14.434-25L78.202,272.274z M178.479,264.938
		c-27.445-57.387,33.14-117.936,90.497-90.497L178.479,264.938z M177.177,379.629c23.79,61.574-33.201,124.613-96.549,107.78
		l51.566-51.566c3.905-3.905,3.905-10.237,0-14.142l-43.833-43.834c-1.876-1.875-4.419-2.929-7.071-2.929
		c-2.652,0-5.195,1.054-7.071,2.929l-51.566,51.567c-16.976-63.173,46.47-120.453,107.781-96.548
		c3.69,1.412,7.859,0.524,10.649-2.267c0,0,189.473-189.473,189.473-189.473c2.791-2.791,3.679-6.963,2.267-10.649
		c-23.97-61.235,33.49-124.826,96.549-107.78l-51.566,51.566c-3.905,3.905-3.905,10.237,0,14.142l43.833,43.833
		c1.876,1.876,4.419,2.929,7.071,2.929c2.652,0,5.195-1.054,7.071-2.929l51.566-51.567c16.989,63.143-46.478,120.468-107.781,96.548
		c-3.687-1.411-7.858-0.523-10.649,2.267c0,0-189.473,189.473-189.473,189.473C176.652,371.772,175.765,375.944,177.177,379.629z
		 M283.603,348.78l-27.837-27.837l67.357-67.357l27.837,27.837C334.169,298.214,300.39,331.993,283.603,348.78z M458.631,479.504
		l-29.184-26.323c6.463-6.463,19.454-19.453,25.915-25.915l26.322,29.185L458.631,479.504z"/>
</g>
<g>
</g>
<g>
</g>
<g>
</g>
<g>
</g>
<g>
</g>
<g>
</g>
<g>
</g>
<g>
</g>
<g>
</g>
<g>
</g>
<g>
</g>
<g>
</g>
<g>
</g>
<g>
</g>
<g>
</g>
</svg>
