<?xml version="1.0" encoding="iso-8859-1"?>
<!-- Generator: Adobe Illustrator 28.0.0, SVG Export Plug-In . SVG Version: 6.00 Build 0)  -->
<svg version="1.1" id="Layer_1" xmlns="http://www.w3.org/2000/svg" xmlns:xlink="http://www.w3.org/1999/xlink" x="0px" y="0px"
	 viewBox="0 0 511.911 511.911" style="enable-background:new 0 0 511.911 511.911;" xml:space="preserve">
<g>
	<g>
		<path style="fill:#33CCCC;" d="M255.955,470.498c-1.065,0-2.13-0.155-3.162-0.466c-61.738-18.607-106.312-50.896-136.27-98.71
			c-5.178-8.265-11.68-20.479-16.562-31.115c-2.524-5.499-0.113-12.003,5.385-14.527c5.498-2.525,12.002-0.114,14.527,5.385
			c4.524,9.853,10.497,21.089,15.218,28.624c26.51,42.312,66.071,71.251,120.864,88.393c54.794-17.142,94.354-46.081,120.865-88.393
			c5.251-8.381,11.214-20.282,15.044-28.624c2.523-5.5,9.028-7.91,14.526-5.386c5.499,2.524,7.91,9.028,5.386,14.527
			c-1.997,4.351-9.081,19.453-16.39,31.116c-29.957,47.813-74.531,80.102-136.27,98.709
			C258.085,470.343,257.02,470.498,255.955,470.498z M78.101,187.217c-5.819,0-10.664-4.579-10.935-10.451
			c-0.092-1.989-0.211-4.286-0.335-6.687c-0.259-5.006-0.553-10.68-0.667-14.931c-0.135-5.023,3.165-9.494,8.004-10.845
			c46.462-12.979,83.301-49.926,96.14-96.425c1.312-4.75,5.632-8.04,10.56-8.04h150.175c4.928,0,9.249,3.29,10.561,8.04
			c12.839,46.499,49.677,83.447,96.14,96.425c4.84,1.352,8.14,5.823,8.004,10.846c-0.162,6.034-0.497,15.105-0.795,21.569
			c-0.279,6.044-5.435,10.71-11.448,10.439c-6.044-0.279-10.718-5.404-10.438-11.448c0.171-3.708,0.358-8.424,0.516-12.86
			c-47.252-16.04-84.818-53.771-100.646-101.101h-133.96c-15.819,47.304-53.358,85.022-100.574,101.077
			c0.1,2.049,0.207,4.139,0.31,6.121c0.127,2.446,0.248,4.785,0.341,6.811c0.278,6.044-4.396,11.169-10.439,11.448
			C78.442,187.213,78.271,187.217,78.101,187.217z"/>
		<g>
			<path d="M500.956,324.675H10.955C4.905,324.675,0,329.579,0,335.63c0,6.05,4.905,10.955,10.955,10.955h48.407
				c35.286,84.459,100.429,139.945,193.757,164.952c0.929,0.249,1.882,0.373,2.835,0.373c0.953,0,1.907-0.124,2.836-0.373
				c93.126-24.953,158.174-80.439,193.473-164.952h48.692c6.051,0,10.955-4.905,10.955-10.955
				C511.911,329.579,507.006,324.675,500.956,324.675z M255.955,489.6c-81.735-22.633-139.752-70.7-172.7-143.015h345.119
				C395.421,418.951,337.503,467.016,255.955,489.6z"/>
			<path d="M10.955,187.236h490.001c6.051,0,10.955-4.905,10.955-10.955c0-6.05-4.904-10.955-10.955-10.955h-15.508
				c0.38-12.587,0.567-27.37,0.567-44.818c0-6.05-4.904-10.955-10.955-10.955c-54.366,0-98.597-44.23-98.597-98.597
				c0-6.05-4.904-10.955-10.955-10.955H146.403c-6.05,0-10.955,4.905-10.955,10.955c0,54.366-44.23,98.597-98.597,98.597
				c-6.05,0-10.955,4.905-10.955,10.955c0,15.393,0.245,31.136,0.685,44.818H10.955C4.905,165.326,0,170.231,0,176.281
				C0,182.331,4.905,187.236,10.955,187.236z M47.844,130.967c57.707-5.245,103.798-51.342,109.021-109.055h198.181
				c5.224,57.721,51.316,103.822,109.034,109.056c-0.062,13.058-0.245,24.426-0.553,34.358H48.502
				C48.156,154.79,47.929,142.947,47.844,130.967z"/>
		</g>
		<g>
			<path d="M182.315,205.163c-6.05,0-10.955,4.905-10.955,10.955v29.878c0,4.942-4.021,8.963-8.964,8.963s-8.963-4.021-8.963-8.963
				v-29.878c0-6.05-4.905-10.955-10.955-10.955c-6.05,0-10.955,4.905-10.955,10.955v29.878c0,13.167,8.288,24.428,19.918,28.858
				v20.939c0,6.05,4.905,10.955,10.955,10.955c6.05,0,10.955-4.905,10.955-10.955v-20.939c11.631-4.43,19.919-15.692,19.919-28.858
				v-29.878C193.27,210.068,188.366,205.163,182.315,205.163z"/>
			<path d="M252.032,227.073c6.051,0,10.955-4.905,10.955-10.955c0-6.05-4.904-10.955-10.955-10.955h-34.858
				c-6.05,0-10.955,4.905-10.955,10.955v79.675c0,6.05,4.905,10.955,10.955,10.955h34.858c6.051,0,10.955-4.905,10.955-10.955
				s-4.904-10.955-10.955-10.955h-23.903V266.91h9.96c6.05,0,10.955-4.905,10.955-10.955S244.139,245,238.088,245h-9.96v-17.927
				H252.032z"/>
			<path d="M335.691,236.036c0-17.024-13.85-30.874-30.874-30.874c-17.023,0-30.873,13.85-30.873,30.874v59.756
				c0,6.05,4.904,10.955,10.955,10.955c6.051,0,10.955-4.905,10.955-10.955v-18.924h17.927v18.924
				c0,6.05,4.904,10.955,10.955,10.955c6.051,0,10.955-4.905,10.955-10.955V236.036z M295.854,254.958v-18.922
				c0-4.942,4.021-8.963,8.963-8.963c4.942,0,8.964,4.021,8.964,8.963v18.922H295.854z"/>
			<path d="M410.387,236.036c0-17.024-13.85-30.874-30.873-30.874h-19.919c-6.051,0-10.955,4.905-10.955,10.955v39.837v39.837
				c0,6.05,4.904,10.955,10.955,10.955c6.051,0,10.955-4.905,10.955-10.955V266.91h2.193l16.89,33.782
				c1.92,3.839,5.788,6.058,9.808,6.058c1.646,0,3.317-0.372,4.891-1.159c5.411-2.706,7.605-9.286,4.899-14.698l-14.115-28.232
				C404.244,257.292,410.387,247.371,410.387,236.036z M370.55,227.073h8.964c4.942,0,8.963,4.021,8.963,8.964
				c0,4.942-4.021,8.963-8.963,8.963h-8.964V227.073z"/>
			<path d="M461.147,248.027l-10.592-4.386c-4.388-1.818-6.478-6.868-4.66-11.258c0.872-2.105,2.53-3.753,4.67-4.64
				c2.141-0.886,4.48-0.893,6.585-0.022l5.295,2.193c5.588,2.317,11.999-0.338,14.313-5.929c2.315-5.59-0.339-11.998-5.929-14.314
				l-5.295-2.194c-7.514-3.111-15.808-3.104-23.355,0.022c-7.548,3.126-13.418,8.986-16.528,16.499
				c-6.441,15.55,0.969,33.442,16.518,39.884l10.592,4.386c4.389,1.818,6.48,6.868,4.661,11.258c-0.872,2.105-2.53,3.753-4.67,4.64
				c-2.141,0.886-4.48,0.894-6.586,0.022l-5.295-2.193c-5.587-2.316-11.998,0.338-14.314,5.929
				c-2.315,5.59,0.339,11.998,5.929,14.314l5.296,2.194c3.748,1.552,7.689,2.328,11.636,2.328c3.966,0,7.935-0.784,11.718-2.35
				c7.549-3.126,13.419-8.986,16.529-16.499C484.108,272.36,476.697,254.469,461.147,248.027z"/>
			<path d="M62.801,205.163H42.882c-6.05,0-10.955,4.905-10.955,10.955c0,6.05,4.905,10.955,10.955,10.955h19.919
				c4.942,0,8.963,4.021,8.963,8.963c0,4.942-4.021,8.964-8.963,8.964c-6.05,0-10.955,4.905-10.955,10.955
				s4.905,10.955,10.955,10.955c4.942,0,8.963,4.021,8.963,8.963c0,4.942-4.021,8.964-8.963,8.964H42.882
				c-6.05,0-10.955,4.905-10.955,10.955s4.905,10.955,10.955,10.955h19.919c17.024,0,30.873-13.85,30.873-30.874
				c0-7.584-2.748-14.538-7.302-19.918c4.554-5.38,7.302-12.335,7.302-19.919C93.675,219.012,79.825,205.163,62.801,205.163z"/>
		</g>
	</g>
</g>
<g>
</g>
<g>
</g>
<g>
</g>
<g>
</g>
<g>
</g>
<g>
</g>
<g>
</g>
<g>
</g>
<g>
</g>
<g>
</g>
<g>
</g>
<g>
</g>
<g>
</g>
<g>
</g>
<g>
</g>
</svg>
