<?xml version="1.0" encoding="iso-8859-1"?>
<!-- Generator: Adobe Illustrator 27.2.0, SVG Export Plug-In . SVG Version: 6.00 Build 0)  -->
<svg version="1.1" id="Capa_1" xmlns="http://www.w3.org/2000/svg" xmlns:xlink="http://www.w3.org/1999/xlink" x="0px" y="0px"
	 viewBox="0 0 510 510" style="enable-background:new 0 0 510 510;" xml:space="preserve">
<g>
	<g>
		<path style="fill:#FD8F01;" d="M106.59,449.87l271.45-63.908L500,178.572l0,0h-30.498V107.41H286.189l-61.829-61.83H70.996v0.002
			H10v388.339c0,16.845,13.653,30.498,30.498,30.498h8.144C66.791,458.101,106.59,462.471,106.59,449.87z"/>
		<path style="fill:#FD6050;" d="M467.404,464.419V141.806L10,141.808v297.057c0,14.113,11.441,25.554,25.554,25.554H467.404z"/>
		<path style="fill:#FDCB50;" d="M70.996,178.574v255.347c0,12.601-4.205,24.18-22.354,30.498h420.86
			c16.845,0,30.498-13.653,30.498-30.498V178.572L70.996,178.574z"/>
	</g>
	<g>
		<g>
			<path style="fill:#1C2E72;" d="M387.825,413.423H197.449c-5.522,0-10-4.477-10-10v-27.142c0-5.523,4.478-10,10-10s10,4.477,10,10
				v17.142h170.376v-17.142c0-5.523,4.478-10,10-10s10,4.477,10,10v27.142C397.825,408.946,393.348,413.423,387.825,413.423z"/>
		</g>
		<g>
			<path style="fill:#1C2E72;" d="M346.53,302.68c0,0-47.013,47.013-47.02,47.02c-1.773,1.773-4.417,2.736-6.899,2.729
				c-2.618-0.007-5.191-1.078-7.041-2.929l-46.82-46.82c-3.91-3.91-3.91-10.24,0-14.14c3.9-3.91,10.23-3.91,14.14,0l29.75,29.75
				v-78.72c0-5.52,4.48-10,10-10c5.52,0,10,4.48,10,10v78.72l29.74-29.75c3.91-3.91,10.24-3.91,14.15,0
				C350.43,292.44,350.43,298.77,346.53,302.68z"/>
		</g>
		<g>
			<path style="fill:#1C2E72;" d="M500,168.57h-20.5v-61.16c0-5.52-4.48-10-10-10H290.33l-58.9-58.9c-1.88-1.88-4.42-2.93-7.07-2.93
				H10c-5.52,0-10,4.48-10,10v388.34c0,22.33,18.17,40.5,40.5,40.5h429c22.33,0,40.5-18.17,40.5-40.5V178.57
				C510,173.05,505.52,168.57,500,168.57z M20,433.92V55.58h200.22l58.9,58.9c1.87,1.88,4.42,2.93,7.07,2.93H459.5v51.16H71
				c-5.53,0-10,4.48-10,10v255.35c0,11.3-9.2,20.5-20.5,20.5S20,445.22,20,433.92z M490,433.92c0,11.3-9.2,20.5-20.5,20.5H75.42
				c3.54-6.02,5.58-13.03,5.58-20.5V188.57h409V433.92z"/>
		</g>
	</g>
</g>
<g>
</g>
<g>
</g>
<g>
</g>
<g>
</g>
<g>
</g>
<g>
</g>
<g>
</g>
<g>
</g>
<g>
</g>
<g>
</g>
<g>
</g>
<g>
</g>
<g>
</g>
<g>
</g>
<g>
</g>
</svg>
