<?xml version="1.0" encoding="iso-8859-1"?>
<!-- Generator: Adobe Illustrator 27.2.0, SVG Export Plug-In . SVG Version: 6.00 Build 0)  -->
<svg version="1.1" id="Capa_1" xmlns="http://www.w3.org/2000/svg" xmlns:xlink="http://www.w3.org/1999/xlink" x="0px" y="0px"
	 viewBox="0 0 510 510" style="enable-background:new 0 0 510 510;" xml:space="preserve">
<g>
	<g>
		<path style="fill:#FFFFFF;" d="M385.667,42.667C385.667,24.626,371.041,10,353,10c-70.104,0-228.667,0-228.667,0l-98,98
			c0,0,0,265.188,0,359.333C26.333,485.374,40.959,500,59,500c76.595,0,326.667,0,326.667,0S385.667,94.468,385.667,42.667z"/>
		<path style="fill:#D2DCFD;" d="M385.667,500c0,0,0-224.028,0-360.333c-12.795,0-25.592,4.882-35.354,14.644l-18.022,18.022
			h-11.957c-27.614,0-50,22.386-50,50v11.957l-18.022,18.022c-19.526,19.526-19.526,51.184,0,70.71l18.022,18.021V500
			C333.94,500,385.667,500,385.667,500z"/>
		<path style="fill:#D2DCFD;" d="M26.333,108c0,0,0,5.934,0,16.333c0,0,47.876,0,81.667,0c18.041,0,32.667-14.626,32.667-32.667
			c0-33.794,0-81.667,0-81.667c-10.273,0-16.333,0-16.333,0L26.333,108z"/>
		<polygon style="fill:#FDCB50;" points="418.333,222.333 451,222.333 451,255 483.667,287.667 451,320.333 451,353 418.333,353 
			385.667,385.667 353,353 320.333,353 320.333,320.333 287.667,287.667 320.333,255 320.333,222.333 353,222.333 385.667,189.667 
					"/>
		<polygon style="fill:#FD6050;" points="385.667,385.667 353,353 320.333,353 320.333,500 451,500 451,353 418.333,353 		"/>
	</g>
	<g>
		<path style="fill:#052A75;" d="M206,281.333h-98c-5.522,0-10-4.477-10-10c0-5.523,4.478-10,10-10h98c5.523,0,10,4.477,10,10
			C216,276.856,211.523,281.333,206,281.333z"/>
		<path style="fill:#052A75;" d="M206,412h-98c-5.522,0-10-4.477-10-10s4.478-10,10-10h98c5.523,0,10,4.477,10,10
			S211.523,412,206,412z"/>
		<path style="fill:#052A75;" d="M206,216h-98c-5.522,0-10-4.477-10-10s4.478-10,10-10h98c5.523,0,10,4.477,10,10
			S211.523,216,206,216z"/>
		<path style="fill:#052A75;" d="M206,346.667h-98c-5.522,0-10-4.477-10-10c0-5.523,4.478-10,10-10h98c5.523,0,10,4.477,10,10
			C216,342.19,211.523,346.667,206,346.667z"/>
		<path style="fill:#052A75;" d="M490.738,280.595L461,250.858v-28.524c0-5.523-4.478-10-10-10h-28.524l-26.809-26.809V42.667
			C395.667,19.14,376.526,0,353,0H124.333c-2.652,0-5.195,1.054-7.071,2.929l-98,98c-1.875,1.875-2.929,4.419-2.929,7.071v359.333
			C16.333,490.86,35.474,510,59,510h261.333H451c5.522,0,10-4.477,10-10V353v-28.524l29.738-29.738
			c1.875-1.875,2.929-4.419,2.929-7.071C493.667,285.014,492.613,282.471,490.738,280.595z M128.476,20h2.191v71.666
			c0,12.499-10.168,22.667-22.667,22.667H36.333v-2.191L128.476,20z M36.333,467.333v-333H108c23.526,0,42.667-19.14,42.667-42.667
			V20H353c12.499,0,22.667,10.168,22.667,22.667v142.857l-26.81,26.81h-28.524c-5.523,0-10,4.477-10,10v28.524l-29.737,29.738
			c-3.905,3.905-3.905,10.236,0,14.142l29.737,29.738V353v137H59C46.501,490,36.333,479.832,36.333,467.333z M330.333,490V363
			h18.525l29.737,29.738c1.876,1.875,4.419,2.929,7.071,2.929c2.652,0,5.195-1.054,7.071-2.929L422.476,363H441v127H330.333z
			 M443.929,313.262c-1.875,1.875-2.929,4.419-2.929,7.071V343h-22.667c-2.652,0-5.195,1.054-7.071,2.929l-25.595,25.595
			l-25.596-25.596C358.195,344.054,355.652,343,353,343h-22.667v-22.667c0-2.652-1.054-5.196-2.929-7.071l-25.596-25.596
			l25.596-25.596c1.875-1.875,2.929-4.418,2.929-7.071v-22.667H353c2.652,0,5.195-1.054,7.071-2.929l25.596-25.596l25.595,25.596
			c1.875,1.876,4.419,2.929,7.071,2.929H441V255c0,2.652,1.054,5.196,2.929,7.071l25.596,25.595L443.929,313.262z"/>
	</g>
</g>
<g>
</g>
<g>
</g>
<g>
</g>
<g>
</g>
<g>
</g>
<g>
</g>
<g>
</g>
<g>
</g>
<g>
</g>
<g>
</g>
<g>
</g>
<g>
</g>
<g>
</g>
<g>
</g>
<g>
</g>
</svg>
